<svg width="13" height="25" viewBox="0 0 13 25" fill="none" xmlns="http://www.w3.org/2000/svg">
<path d="M7.4472 11.1456C4.85923 10.0465 3.95258 9.27501 3.95258 7.75977C3.95258 6.54342 4.62276 5.1741 6.91172 5.1741C8.81343 5.1741 10.0295 5.86053 10.654 6.21492L11.3957 4.2539C10.5038 3.74986 9.28852 3.27191 7.53621 3.21641V0.328125H5.66332V3.30055C2.9583 3.74967 1.20874 5.61969 1.20874 8.08455C1.20874 10.6702 3.08163 12.065 6.10821 13.2553C8.30953 14.1467 9.27852 15.1581 9.27499 16.7908C9.27852 18.488 8.03934 19.7044 5.93273 19.7044C4.26748 19.7044 2.72026 19.1119 1.68304 18.4298L0.970703 20.4169C2.00793 21.1588 3.76357 21.695 5.48352 21.7274V24.6965H7.35641V21.6073C10.4152 21.1321 12.051 18.9311 12.051 16.5566C12.0518 13.9133 10.5067 12.3971 7.4472 11.1456Z" fill="white"/>
</svg>
